<?xml version="1.0" encoding="utf-8"?>
<!-- Generator: Adobe Illustrator 16.0.4, SVG Export Plug-In . SVG Version: 6.00 Build 0)  -->
<!DOCTYPE svg PUBLIC "-//W3C//DTD SVG 1.1//EN" "http://www.w3.org/Graphics/SVG/1.1/DTD/svg11.dtd">
<svg version="1.1" id="Whole_Tale_logo" xmlns="http://www.w3.org/2000/svg" xmlns:xlink="http://www.w3.org/1999/xlink" x="0px"
	 y="0px" width="279.967px" height="280px" viewBox="0 0 279.967 280" enable-background="new 0 0 279.967 280"
	 xml:space="preserve">
<circle id="Background" fill="#FFFFFF" cx="139.984" cy="140" r="130"/>
<path id="Tail" fill="#333333" d="M139.984,260c13.431,0,26.327-2.898,26.327-2.898s-1.298-8.183,8.651-16.205
	c8.524-6.874,25.953-8.553,46.529-20.109c17.932-10.072,28.863-28.287,35.324-53.228c5.149-19.878,1.258-24.202-1.951-24.202
	c-4.493,0-12.868,15.928-29.844,18.609c-15.018,2.37-30.805,1.604-51.344,0c-22.395-1.75-33.693,21.818-33.693,21.818h0
	c0,0-11.299-23.568-33.693-21.818c-20.538,1.604-36.325,2.37-51.344,0c-16.975-2.682-25.35-18.609-29.842-18.609
	c-3.209,0-7.102,4.324-1.952,24.202c6.461,24.94,17.392,43.155,35.325,53.228c20.575,11.557,38.003,13.235,46.529,20.109
	c9.948,8.022,8.651,16.205,8.651,16.205S126.554,260,139.984,260L139.984,260z"/>
<path id="Center" fill="#00517D" d="M106.291,155.967c22.395-1.75,33.693,17.531,33.693,17.531h0c0,0,11.298-19.281,33.693-17.531
	c2.329,0.181,4.591,0.352,6.805,0.507c2.071-5.085,3.222-10.644,3.222-16.474c0-24.143-19.573-43.714-43.72-43.714
	c-24.146,0-43.719,19.571-43.719,43.714c0,5.83,1.15,11.389,3.222,16.474C101.7,156.318,103.96,156.147,106.291,155.967z"/>
<path id="Middle" fill="#2C98D4" d="M54.946,155.967c11.188,1.766,22.805,1.79,36.49,1.024c-1.863-5.321-2.887-11.034-2.887-16.991
	c0-28.403,23.028-51.429,51.435-51.429c28.406,0,51.434,23.025,51.434,51.429c0,5.957-1.023,11.67-2.885,16.991
	c7.645,0.428,14.643,0.604,21.283,0.372c1.423-6.13,2.177-12.516,2.177-19.077c0-46.392-37.612-84-84.01-84
	c-46.397,0-84.01,37.608-84.01,84c0,4.755,0.402,9.414,1.161,13.954C47.782,153.962,50.945,155.334,54.946,155.967z"/>
<path id="Outer" fill="#8BC249" d="M25.104,137.356c5.702,0,8.964,4.386,13.228,8.942c-0.233-2.641-0.36-5.312-0.36-8.013
	c0-49.706,40.299-90,90.011-90c49.712,0,90.011,40.294,90.011,90c0,6.422-0.678,12.688-1.958,18.729
	c3.045-0.24,6.031-0.582,8.985-1.048c16.976-2.682,19.262-18.61,29.844-18.61c1.551,0,3.414,0.399,5.119,1.498
	C259.368,73.108,205.882,20,139.984,20c-65.92,0-119.417,53.142-120,118.915C21.659,137.77,23.523,137.356,25.104,137.356z"/>
</svg>
